<?xml version="1.0" encoding="UTF-8" standalone="no"?>
<!-- Created with Inkscape (http://www.inkscape.org/) -->

<svg
   width="100"
   height="100"
   viewBox="0 0 100 100"
   version="1.1"
   id="svg1"
   inkscape:version="1.2.1 (9c6d41e410, 2022-07-14)"
   sodipodi:docname="control_light_ink.svg"
   inkscape:export-filename="control_light_slide.svg"
   inkscape:export-xdpi="25.27"
   inkscape:export-ydpi="25.27"
   xmlns:inkscape="http://www.inkscape.org/namespaces/inkscape"
   xmlns:sodipodi="http://sodipodi.sourceforge.net/DTD/sodipodi-0.dtd"
   xmlns:xlink="http://www.w3.org/1999/xlink"
   xmlns="http://www.w3.org/2000/svg"
   xmlns:svg="http://www.w3.org/2000/svg">
  <sodipodi:namedview
     id="namedview1"
     pagecolor="#858585"
     bordercolor="#666666"
     borderopacity="1.0"
     inkscape:showpageshadow="2"
     inkscape:pageopacity="1"
     inkscape:pagecheckerboard="0"
     inkscape:deskcolor="#d1d1d1"
     inkscape:document-units="mm"
     inkscape:zoom="8.2142635"
     inkscape:cx="53.626232"
     inkscape:cy="46.991432"
     inkscape:window-width="3440"
     inkscape:window-height="1387"
     inkscape:window-x="2552"
     inkscape:window-y="22"
     inkscape:window-maximized="1"
     inkscape:current-layer="g5838"
     showgrid="false" />
  <defs
     id="defs1">
    <linearGradient
       inkscape:collect="always"
       id="linearGradient15330">
      <stop
         style="stop-color:#f1f6f9;stop-opacity:1;"
         offset="0.95537567"
         id="stop15326" />
      <stop
         style="stop-color:#f1f6f9;stop-opacity:0;"
         offset="1"
         id="stop15328" />
    </linearGradient>
    <linearGradient
       inkscape:collect="always"
       id="linearGradient6310">
      <stop
         style="stop-color:#ffffff;stop-opacity:1;"
         offset="0"
         id="stop6308" />
      <stop
         style="stop-color:#394867;stop-opacity:1;"
         offset="1"
         id="stop6306" />
    </linearGradient>
    <linearGradient
       inkscape:collect="always"
       xlink:href="#linearGradient6310"
       id="linearGradient6312"
       x1="0"
       y1="13.229166"
       x2="26.458332"
       y2="13.229166"
       gradientUnits="userSpaceOnUse"
       gradientTransform="matrix(0,3.7795275,-3.7795275,0,99.999993,0)" />
    <radialGradient
       inkscape:collect="always"
       xlink:href="#linearGradient15330"
       id="radialGradient15332"
       cx="13.229167"
       cy="13.229167"
       fx="13.229167"
       fy="13.229167"
       r="13.229167"
       gradientUnits="userSpaceOnUse"
       gradientTransform="scale(3.7795275)" />
  </defs>
  <g
     inkscape:label="Layer 1 copy 1"
     inkscape:groupmode="layer"
     id="g5838"
     style="display:inline"
     inkscape:export-filename="control_light_dark.svg"
     inkscape:export-xdpi="96"
     inkscape:export-ydpi="96">
    <path
       style="fill:url(#radialGradient15332);fill-opacity:1;stroke-width:0;paint-order:stroke fill markers"
       id="path15322"
       sodipodi:type="arc"
       sodipodi:cx="50"
       sodipodi:cy="50"
       sodipodi:rx="50"
       sodipodi:ry="49.999996"
       sodipodi:start="0"
       sodipodi:end="6.2807608"
       sodipodi:open="true"
       sodipodi:arc-type="arc"
       d="M 100,50 A 50,49.999996 0 0 1 50.030306,99.999987 50,49.999996 0 0 1 3.6738965e-5,50.060613 50,49.999996 0 0 1 49.909081,8.6477349e-5 50,49.999996 0 0 1 99.999853,49.878775"
       inkscape:export-filename="control_light_slide.svg"
       inkscape:export-xdpi="96"
       inkscape:export-ydpi="96" />
    <path
       id="rect5888"
       style="fill:url(#linearGradient6312);fill-opacity:1;stroke-width:0;paint-order:stroke fill markers"
       d="M 50,0 A 5.569548,5.569548 0 0 0 44.429687,5.5703122 V 16.708984 A 5.5695476,5.5695476 0 0 0 50,22.277344 5.569548,5.569548 0 0 0 55.570313,16.708984 V 5.5703122 A 5.5695476,5.5695476 0 0 0 50,0 Z m 31.955078,12.974609 a 5.569548,5.569548 0 0 0 -4.558594,1.607422 l -7.857422,7.894531 a 5.5695476,5.5695476 0 0 0 0.01776,7.875 5.569548,5.569548 0 0 0 7.876951,-0.01758 l 7.857423,-7.894531 a 5.5695476,5.5695476 0 0 0 -0.01776,-7.876953 5.569548,5.569548 0 0 0 -3.318357,-1.587894 z m -62.833985,0.144533 a 5.5695476,5.5695476 0 0 0 -4.558593,1.607422 5.569548,5.569548 0 0 0 0.01954,7.876953 l 7.894531,7.857422 a 5.5695476,5.5695476 0 0 0 7.875,-0.01758 5.569548,5.569548 0 0 0 -0.01758,-7.876953 l -7.894543,-7.857427 a 5.5695476,5.5695476 0 0 0 -3.31836,-1.589842 z M 50,27.722657 A 22.278191,22.278191 0 0 0 27.722656,50 22.278191,22.278191 0 0 0 50,72.277344 22.278191,22.278191 0 0 0 72.277344,50 22.278191,22.278191 0 0 0 50,27.722657 Z M 5.5703122,44.429687 A 5.5695476,5.5695476 0 0 0 0,50 5.569548,5.569548 0 0 0 5.5703122,55.570313 H 16.708984 A 5.5695476,5.5695476 0 0 0 22.277344,50 5.569548,5.569548 0 0 0 16.708984,44.429687 Z m 77.7207038,0 A 5.5695476,5.5695476 0 0 0 77.722653,50 5.569548,5.569548 0 0 0 83.291016,55.570313 H 94.429684 A 5.5695476,5.5695476 0 0 0 99.999997,50 5.569548,5.569548 0 0 0 94.429684,44.429687 Z m -9.085939,23.519531 a 5.5695476,5.5695476 0 0 0 -4.55664,1.607422 5.569548,5.569548 0 0 0 0.01776,7.876951 l 7.89453,7.857422 a 5.5695476,5.5695476 0 0 0 7.876955,-0.01776 5.569548,5.569548 0 0 0 -0.01776,-7.876951 L 77.523438,69.538876 A 5.5695476,5.5695476 0 0 0 74.205077,67.949033 Z M 27.125,68.058598 a 5.569548,5.569548 0 0 0 -4.558594,1.607422 l -7.857422,7.894529 a 5.5695476,5.5695476 0 0 0 0.01758,7.876955 5.569548,5.569548 0 0 0 7.876953,-0.01776 l 7.857425,-7.896302 a 5.5695476,5.5695476 0 0 0 -0.01758,-7.875001 5.569548,5.569548 0 0 0 -3.318359,-1.589843 z M 50,77.722657 A 5.569548,5.569548 0 0 0 44.429687,83.29102 V 94.429688 A 5.5695476,5.5695476 0 0 0 50,100 5.569548,5.569548 0 0 0 55.570313,94.429688 V 83.29102 A 5.5695476,5.5695476 0 0 0 50,77.722657 Z"
       inkscape:export-filename="control_light_slide.svg"
       inkscape:export-xdpi="96"
       inkscape:export-ydpi="96" />
  </g>
</svg>
