<?xml version="1.0" encoding="UTF-8" standalone="no"?>
<!-- Created with Inkscape (http://www.inkscape.org/) -->

<svg
   width="200mm"
   height="300mm"
   viewBox="0 0 200 300"
   version="1.1"
   id="svg1"
   xml:space="preserve"
   inkscape:version="1.2.1 (9c6d41e410, 2022-07-14)"
   sodipodi:docname="objective_button_active.svg"
   xmlns:inkscape="http://www.inkscape.org/namespaces/inkscape"
   xmlns:sodipodi="http://sodipodi.sourceforge.net/DTD/sodipodi-0.dtd"
   xmlns="http://www.w3.org/2000/svg"
   xmlns:svg="http://www.w3.org/2000/svg"><sodipodi:namedview
     id="namedview1"
     pagecolor="#ffffff"
     bordercolor="#666666"
     borderopacity="1.0"
     inkscape:showpageshadow="2"
     inkscape:pageopacity="0.0"
     inkscape:pagecheckerboard="0"
     inkscape:deskcolor="#d1d1d1"
     inkscape:document-units="mm"
     showguides="false"
     inkscape:zoom="0.74618522"
     inkscape:cx="217.77435"
     inkscape:cy="398.0245"
     inkscape:window-width="3440"
     inkscape:window-height="1387"
     inkscape:window-x="2552"
     inkscape:window-y="22"
     inkscape:window-maximized="1"
     inkscape:current-layer="g7"
     showgrid="false" /><defs
     id="defs1" /><g
     inkscape:groupmode="layer"
     id="layer4"
     inkscape:label="Objective Buttons"
     transform="translate(-26.251623,-5.920311)"
     style="display:none"><g
       id="g6"
       transform="translate(0,6.629331)"
       inkscape:export-filename="objective_button.svg"
       inkscape:export-xdpi="96"
       inkscape:export-ydpi="96"><path
         id="rect72"
         style="fill:#826f66;fill-opacity:1;stroke:none;stroke-width:0;stroke-dasharray:none"
         d="m 62.545185,187.19421 12.407384,12.09677 H 177.86236 l 11.7938,-12.09677 z" /><path
         style="fill:#f7ccac;fill-opacity:1;stroke:none;stroke-width:0;stroke-dasharray:none"
         d="M 62.545186,174.78658 H 189.65616 v 12.40729 H 62.545185 Z"
         id="path74" /><path
         id="path77"
         style="fill:#826f66;fill-opacity:1;stroke:none;stroke-width:0;stroke-dasharray:none"
         d="m 50.448442,162.37946 12.096748,12.40738 h 127.11099 l 12.09674,-12.40738 z" /></g><path
       id="path4"
       style="fill:#f7ccac;fill-opacity:1;stroke-width:0"
       d="m 220.04253,25.130071 v -6.632345 l 6.20368,6.632345 z m -187.739558,-2e-6 h -6.048733 l 6.048733,-6.802246 z m -6.049188,0 c -0.02643,42.675268 0.02689,87.598981 4.61e-4,130.274251 l 12.097453,13.60447 H 213.84967 l 12.40737,-13.60447 -0.0108,-130.274249 z" /><path
       id="rect3"
       style="fill:#826f66;stroke-width:0"
       d="m 38.351476,5.920311 -6.048374,6.203692 v 12.407386 6.203692 6.203692 l 6.048374,6.203694 H 213.83895 l 6.20369,-6.048373 V 30.735081 18.327697 12.124003 11.969384 l -6.20369,-6.049073 z" /></g><g
     inkscape:groupmode="layer"
     id="g7"
     inkscape:label="Objective Buttons copy"
     transform="translate(-26.251623,-5.920311)"><path
       id="rect3639"
       style="fill:#9ba4b5;stroke-width:0;paint-order:stroke fill markers"
       d="M 26.254208,74.708878 H 226.25296 V 209.8125 H 26.254208 Z m 6.048725,-56.381056 -6.048726,6.802169 h -5.17e-4 c -0.01006,16.24105 -0.0037,32.934396 5.17e-4,49.578886 H 226.25027 l -0.004,-49.578886 -6.20375,-6.632153 v 6.632153 H 32.302933 Z M 26.254207,209.8125 c 0.0034,15.29287 0.0092,30.65665 0,45.59152 l 12.097453,13.60435 h 175.49781 l 12.40752,-13.60435 -0.004,-45.59152 z" /><rect
       style="display:none;fill:#000000;fill-opacity:1;stroke-width:2.64583;stroke-linecap:round"
       id="rect4"
       width="299.97577"
       height="245.72484"
       x="-13.106903"
       y="-7.9083595"
       ry="3.0123222" /><path
       style="display:none;fill:#ffffff;fill-opacity:1;stroke:none;stroke-width:0;stroke-dasharray:none"
       d="m 62.545015,193.82357 12.407511,12.09694 H 177.86252 l 11.7936,-12.09694 z"
       id="path2" /><ellipse
       style="fill:#ffffff;fill-opacity:1;stroke-width:3.33646;stroke-linecap:round"
       id="path3"
       cx="126.10056"
       cy="293.82336"
       rx="63.55555"
       ry="12.096933" /><path
       style="fill:#394867;fill-opacity:1;stroke:none;stroke-width:0;stroke-dasharray:none"
       d="m 50.448596,269.00837 12.096419,12.40751 v 12.40699 H 189.65612 v -12.40699 l 12.09694,-12.40751 z"
       id="path1" /><path
       id="path6"
       style="fill:#394867;fill-opacity:1;stroke-width:0"
       d="m 38.351476,5.920311 -6.048374,6.203692 v 12.407386 6.203692 6.203692 l 6.048374,6.203694 H 213.83895 l 6.20369,-6.048373 V 30.735081 18.327697 12.124003 11.969384 l -6.20369,-6.049073 z" /></g></svg>
