<?xml version="1.0" encoding="UTF-8" standalone="no"?>
<!-- Created with Inkscape (http://www.inkscape.org/) -->

<svg
   width="120"
   height="120"
   viewBox="0 0 31.75 31.75"
   version="1.1"
   id="svg1"
   xml:space="preserve"
   inkscape:version="1.3.2 (091e20ef0f, 2023-11-25)"
   sodipodi:docname="objective2.svg"
   xmlns:inkscape="http://www.inkscape.org/namespaces/inkscape"
   xmlns:sodipodi="http://sodipodi.sourceforge.net/DTD/sodipodi-0.dtd"
   xmlns="http://www.w3.org/2000/svg"
   xmlns:svg="http://www.w3.org/2000/svg"><sodipodi:namedview
     id="namedview1"
     pagecolor="#ffffff"
     bordercolor="#666666"
     borderopacity="1.0"
     inkscape:showpageshadow="2"
     inkscape:pageopacity="0.0"
     inkscape:pagecheckerboard="0"
     inkscape:deskcolor="#d1d1d1"
     inkscape:document-units="mm"
     showguides="false"
     inkscape:zoom="7.2512153"
     inkscape:cx="57.507602"
     inkscape:cy="62.058563"
     inkscape:window-width="1680"
     inkscape:window-height="986"
     inkscape:window-x="0"
     inkscape:window-y="27"
     inkscape:window-maximized="1"
     inkscape:current-layer="layer3" /><defs
     id="defs1" /><g
     inkscape:groupmode="layer"
     id="layer3"
     inkscape:label="Layer 1 copy 2"
     transform="translate(-32.344769,-7.3447705)"><path
       id="rect4"
       style="fill:#000000;fill-opacity:1;stroke:none;stroke-width:0;stroke-dasharray:none"
       d="M 32.344769 7.3447705 L 32.344769 39.09477 L 64.094769 39.09477 L 64.094769 7.3447705 L 32.344769 7.3447705 z M 48.219769 11.048937 A 1.5875 1.5875 0 0 1 49.807269 12.636437 A 1.5875 1.5875 0 0 1 48.219769 14.223937 A 1.5875 1.5875 0 0 1 46.632269 12.636437 A 1.5875 1.5875 0 0 1 48.219769 11.048937 z M 37.636436 21.632271 A 1.5875 1.5875 0 0 1 39.223936 23.21977 A 1.5875 1.5875 0 0 1 37.636436 24.80727 A 1.5875 1.5875 0 0 1 36.048936 23.21977 A 1.5875 1.5875 0 0 1 37.636436 21.632271 z M 58.803102 21.632271 A 1.5875 1.5875 0 0 1 60.390602 23.21977 A 1.5875 1.5875 0 0 1 58.803102 24.80727 A 1.5875 1.5875 0 0 1 57.215602 23.21977 A 1.5875 1.5875 0 0 1 58.803102 21.632271 z M 48.219769 32.215604 A 1.5875 1.5875 0 0 1 49.807269 33.803104 A 1.5875 1.5875 0 0 1 48.219769 35.390604 A 1.5875 1.5875 0 0 1 46.632269 33.803104 A 1.5875 1.5875 0 0 1 48.219769 32.215604 z "
       inkscape:export-filename="objective2.svg"
       inkscape:export-xdpi="96"
       inkscape:export-ydpi="96" /></g></svg>
